<?xml version="1.0" encoding="UTF-8"?>
<svg width="480px" height="116px" viewBox="0 0 480 116" version="1.1" xmlns="http://www.w3.org/2000/svg" xmlns:xlink="http://www.w3.org/1999/xlink">
    <title>JustEat_Logo</title>
    <g id="Page-1" stroke="none" stroke-width="1" fill="none" fill-rule="evenodd">
        <g id="JustEat_Logo" fill="#FFFFFF" fill-rule="nonzero">
            <g id="House">
                <path d="M52.7001158,1.11975435 C54.8866083,-0.37325145 57.7373242,-0.37325145 59.9238171,1.11975435 C65.4945656,4.69988681 70.8383259,8.63656193 75.9231148,12.9062182 C75.9231148,12.9062182 77.3087353,13.8884236 77.3456852,12.2262299 C77.2084354,10.0781413 77.3325508,7.92094076 77.7151842,5.80411821 C78.1350671,4.67298004 79.192231,3.92240224 80.3755752,3.9152618 C80.3755752,3.9152618 86.657055,4.23636741 90.6476419,4.78413574 C92.4315585,5.0268459 93.8211086,6.4865348 94.0100809,8.3162972 C94.0100809,8.3162972 96.5780977,25.8071074 97.1508207,32.1158877 C97.1508207,32.1158877 97.6496442,35.3269436 102.194479,40.7668502 C102.194479,40.7668502 111.431949,53.9888449 112.503496,56.5199124 C112.503496,56.5199124 114.646589,61.090945 110.027854,61.7142674 C110.027854,61.7142674 101.603281,62.5831413 100.790384,62.772027 C99.6546729,62.9103713 98.8345289,63.9501186 98.9428897,65.1142089 L98.9428897,65.1142089 C98.9428897,65.1142089 98.4994912,95.5436853 96.3194483,110.163434 C96.3194483,110.163434 95.7467253,115.962223 92.6244604,115.830003 C92.6244604,115.830003 83.9597136,115.546674 81.9459451,115.60334 C81.9459451,115.60334 81.0776231,115.60334 81.2069476,114.413361 C81.2069476,114.413361 85.6224585,66.9652882 82.6295181,42.9768121 C82.6295181,42.9768121 82.5001936,39.8790875 80.1908261,39.1990992 C80.1908261,39.1990992 78.0846827,38.3302253 76.0709143,41.0879555 C67.3322634,53.5955967 62.5484274,68.5386655 62.3625091,83.90833 C62.3625091,83.90833 62.122335,91.4637556 63.2493061,93.3526119 C63.2493061,93.3526119 63.951354,94.6748114 67.5354924,94.9770286 L72.0803274,95.600351 C72.0803274,95.600351 72.9116998,95.600351 72.8377999,96.7336648 C72.8377999,96.7336648 71.8032033,110.654537 71.5076043,113.128938 C71.489791,113.692156 71.3772996,114.248038 71.1750554,114.772244 C71.1750554,114.772244 71.0087809,115.244458 69.5862104,115.187792 C69.5862104,115.187792 49.5593759,115.036683 47.305433,115.187792 C47.305433,115.187792 46.3632114,115.187792 46.1599869,114.6778 C45.9567625,114.16781 44.7743665,96.7147764 44.8113164,94.2403746 C44.7741748,93.7267589 45.0545158,93.2440348 45.513364,93.0315062 C48.6098292,91.0336143 50.6493665,87.7042465 51.0558459,83.9838842 C51.2990288,81.3403903 51.3360954,78.6813044 51.1666954,76.0317987 C51.1666954,76.0317987 51.9056933,49.3422582 52.0904428,45.054554 C52.0904428,45.054554 52.2382423,43.6001345 50.3907483,43.3356946 C49.9473048,43.2278908 49.4801353,43.3046532 49.0920623,43.5490864 C48.7039893,43.79352 48.4268188,44.1855905 48.3215549,44.6390057 C48.3215549,44.6390057 48.3215549,44.6390057 48.3215549,44.7901141 C48.3215549,44.9412225 47.028309,62.3942556 47.2684834,69.3452473 C47.2684834,69.3452473 47.7118819,73.897391 44.626567,73.991834 C44.626567,73.991834 41.6336266,74.4451596 41.4858271,70.648558 C41.4858271,70.648558 41.7075265,53.5355193 42.446524,45.0734425 C42.4522629,44.106288 41.7425084,43.2909573 40.8022545,43.1845862 C39.8233044,43.0467265 38.9115748,43.7208646 38.7330611,44.7145599 C38.7240283,44.7645062 38.7240283,44.815722 38.7330611,44.8656683 C38.7330611,44.8656683 37.4398153,61.2420534 37.6799896,69.8930156 C37.6799896,69.8930156 38.0494882,74.0862767 34.779424,73.9351683 C34.779424,73.9351683 32.0451329,74.2562739 31.8973334,70.5352269 C31.8973334,70.5352269 32.636331,47.094519 32.8395553,45.2812166 C32.7906167,44.3575955 32.0946613,43.606085 31.1952857,43.5056919 L31.0105363,43.5056919 C30.0531065,43.4232215 29.1936654,44.1048163 29.0337177,45.0734425 C29.0247519,45.1297376 29.0247519,45.1871445 29.0337177,45.2434397 C29.0337177,45.2434397 27.8143717,73.2740685 27.9806461,81.5094824 C27.9806461,81.5094824 27.8697965,89.9715589 33.9850016,93.4092776 C33.9850016,93.4092776 34.8902736,93.9381574 34.9087486,94.7503656 C34.9087486,94.7503656 35.5923214,109.615665 36.2204693,114.413361 C36.2204693,114.413361 36.4421686,115.565563 35.4445218,115.565563 L20.054897,116 C18.3801756,115.992359 17.0022847,114.649913 16.9141572,112.940053 C14.9192318,97.1888377 13.968682,81.3177002 14.0690165,65.4353145 C14.1807659,64.2194979 13.3881881,63.1093565 12.2215225,62.8475812 C12.2215225,62.8475812 4.3511982,62.1109273 2.44827938,61.6198244 C0.706335751,61.156961 -0.342308948,59.3419509 0.101962033,57.5587832 C0.183129068,57.255346 0.301049812,56.9634619 0.452985891,56.6899093 C13.2363594,34.1342643 31.1605483,15.0700599 52.7001158,1.11975435 L52.7001158,1.11975435 Z" id="Path"></path>
            </g>
            <path d="M161.390391,42 L146.281635,42 C141.392426,42 141.392426,42 140.363119,48.1730502 C139.333812,54.3461 139.352193,54.5644396 143.837031,54.5644396 L152.825086,54.5644396 L147.715312,86.104557 C146.48382,93.1509645 143.634845,98.0139782 134.848975,100.872239 C132.606556,101.527257 132,102.400615 132,103.512161 C132.156531,105.286557 132.644227,107.008336 133.433677,108.573665 C134.848975,112.325133 135.676097,113 136.889208,113 C138.345749,112.849306 139.785834,112.55024 141.190241,112.106793 C153.633828,107.700307 158.743602,97.3391109 160.783835,84.9930109 L166.500165,49.5029355 C167.511092,42 167.511092,42 161.390391,42" id="Path"></path>
            <path d="M214.06893,43 C208.22546,43 208.22546,43 207.435802,48.2073611 L203.224292,75.2556686 C202.048579,83.1603679 200.100755,87.7308574 192.888544,87.7308574 C185.676333,87.7308574 183.342455,83.1603679 184.518168,76.0798553 L188.606842,50.2865593 C189.782556,43 189.57198,43 183.535482,43 C177.498985,43 177.498985,43 176.709326,48.0013144 L172.427624,75.0496219 C169.900719,90.4469273 178.867725,100 191.537351,100 C205.751198,100 212.963409,93.1442656 215.297287,76.9227735 L219.596537,50.0805127 C220.561675,43 220.17562,43 214.139122,43" id="Path"></path>
            <path d="M247.567477,87.666597 C252.472468,87.460864 255.117856,85.179098 255.117856,82.8973317 C255.117856,79.9796632 251.645784,78.9509979 246.961243,77.4921639 C237.775867,74.5744955 229.417175,71.2640642 229.417175,61.2953641 C229.417175,49.4563636 239.006707,43.0038278 251.039549,43.0038278 C255.878473,42.9682666 260.716092,43.180502 265.534072,43.6397299 C268.785696,44.0511959 269.61238,45.0798612 268.583617,50.2792956 C267.554855,55.4787304 266.342386,55.8901963 263.494919,55.6844634 C260.022847,55.4787304 255.522013,55.0485613 250.231236,55.0485613 C244.113776,55.0485613 242.276701,57.3490304 242.276701,59.4250637 C242.276701,62.1182961 244.720011,63.5771305 250.433315,65.2416975 C261.033238,68.3463958 267.977382,72.7228982 267.977382,82.0743993 C267.977382,93.0904678 260.022847,99.5243005 247.163321,99.9357665 C241.021817,100.155497 234.873359,99.8112152 228.792569,98.9071016 C224.695892,98.2711995 224.493813,98.2711995 225.522575,92.2488328 C226.532967,86.8623681 226.532967,86.4321991 230.409195,86.8623681 C236.092615,87.5920535 241.82346,87.8672063 247.549107,87.6853001" id="Path"></path>
            <path d="M313.057824,43 L279.294396,43 C274.509594,43 274.509594,43 273.502268,49.0862809 C272.494941,55.1725619 272.710797,55.1537192 276.901995,55.1537192 L287.892647,55.1537192 L281.686796,92.6889255 C280.49959,100 280.697457,100 286.885321,100 C292.677449,100 292.875316,100 293.684775,94.7804959 L300.070506,55.210248 L310.665423,55.210248 C315.450225,55.210248 315.450225,55.210248 316.457551,49.1428101 C317.464878,43.0753719 317.44689,43.0565292 313.057824,43.0565292" id="Path"></path>
            <path d="M376.788151,55.195349 C381.480249,55.195349 381.480249,55.195349 382.468062,49.0976745 C383.45587,43 383.438232,43 379.1342,43 L355.426748,43 C346.995079,43 347.206753,43 345.830874,52.0518274 L339.762895,90.1149501 C338.192982,100 338.387016,100 346.818684,100 L369.944035,100 C374.847808,100 374.636135,100 375.623945,94.1106309 C376.611756,88.2212623 376.594116,88.0129568 372.290084,88.0129568 L352.286921,88.0129568 L353.856834,77.067442 L370.508498,77.067442 C375.024203,77.067442 375.024203,77.067442 375.80034,71.3863787 C376.576477,65.7053155 376.576477,65.49701 370.508498,65.49701 L355.814816,65.49701 L357.384729,55.1764118 L376.788151,55.195349 Z" id="Path"></path>
            <path d="M402.555053,75.2830187 L410.504361,57.2641509 C411.128556,55.7924528 411.128556,55.7924528 412.138285,55.7924528 C413.148011,55.7924528 413.16637,55.7924528 413.368317,57.4716981 L415.81002,75.2830187 L402.555053,75.2830187 Z M424.163222,50.1320756 C422.951549,43 422.951549,43 413.148011,43 C403.968671,43 404.170614,43 401.325022,48.8679247 L380.726576,93.0943397 C377.660676,99.3773584 378.284872,100 385.811931,100 C391.741789,100 391.741789,100 394.183492,94.3396225 L397.432978,86.7924528 L417.425585,86.7924528 L418.435315,94.3396225 C419.261453,100 419.463399,100 425.374894,100 C432.112534,100 432.71837,99.5849056 431.488335,92.6603772 L424.163222,50.1320756 Z" id="Shape"></path>
            <path d="M476.227922,43 L442.286757,43 C437.486813,43 437.486813,43 436.498061,49.0862809 C435.509312,55.1725619 435.689082,55.1537192 439.877798,55.1537192 L450.861936,55.1537192 L444.677741,92.6889255 C443.47326,100 443.671012,100 449.873183,100 C455.661879,100 455.859627,100 456.650632,94.7804959 L463.050555,55.210248 L473.621213,55.210248 C478.421156,55.210248 478.421156,55.210248 479.409908,49.1428101 C480.398661,43.0753719 480.614389,43.0565292 476.227922,43.0565292" id="Path"></path>
        </g>
    </g>
</svg>