<?xml version="1.0" encoding="UTF-8"?>
<svg width="911px" height="106px" viewBox="0 0 911 106" version="1.1" xmlns="http://www.w3.org/2000/svg" xmlns:xlink="http://www.w3.org/1999/xlink">
    <title>JustEatTakeaway_Logo</title>
    <g id="Page-1" stroke="none" stroke-width="1" fill="none" fill-rule="evenodd">
        <g id="JustEatTakeaway_Logo" transform="translate(0.000000, 0.000000)" fill="#FF8000" fill-rule="nonzero">
            <path d="M105.099748,51.128878 C101.607716,45.3573277 97.8120293,39.7376604 93.5608599,34.4217588 L93.4090324,34.2698759 L93.4090324,34.2698759 C93.257205,33.9661101 92.649895,33.3585785 92.4980676,33.0548127 C90.5243104,30.4728034 88.3987257,9.51296296 88.0950707,7.99413394 C87.7914158,6.17153912 87.3359333,4.3489443 84.6030387,4.0451785 C82.477454,3.7414127 79.289077,3.43764689 75.797045,3.28576399 C74.1269428,3.13388109 73.3678054,4.0451785 72.9123229,4.80459301 C72.608668,5.41212461 72.4568405,6.01965622 72.4568405,6.62718783 C72.4568405,9.36108005 72.4568405,10.5761433 72.4568405,11.031792 C72.4568405,11.031792 72.4568405,11.031792 72.4568405,11.1836749 C72.4568405,11.3355578 72.305013,11.4874407 72.1531856,11.6393236 C71.8495306,11.9430894 71.3940482,11.9430894 71.0903932,11.6393236 C69.420291,10.4242604 60.7661247,3.7414127 56.0594729,0.855637566 C55.755818,0.703754665 55.6039905,0.551871763 55.3003355,0.551871763 C53.4784058,-0.207542745 51.5046486,-0.207542745 49.8345463,0.703754665 C49.6827188,0.703754665 49.5308914,0.855637566 49.5308914,0.855637566 C48.0126166,1.91881788 20.9873256,17.107108 0.642443542,51.2807609 C0.642443542,51.2807609 -0.57217628,53.1033557 0.338788587,54.7740676 C1.24975345,56.7485453 10.2075746,57.2041941 11.5740219,57.356077 C13.2441242,57.5079599 13.0922967,58.874906 13.0922967,58.874906 C13.2441242,72.8481329 13.5477791,79.6828635 15.8251913,103.376596 C15.8251913,103.376596 16.1288463,105.806723 18.7099134,105.958605 C19.7727057,105.958605 23.4165652,105.806723 33.1335238,105.502957 C33.4371787,105.502957 33.8926612,105.199191 33.8926612,104.895425 L33.8926612,104.743542 C32.9816963,95.0230365 32.6780413,86.669477 32.6780413,86.2138283 C32.6780413,85.9100624 32.3743864,85.3025308 32.0707314,85.1506479 C28.426872,83.0242873 26.3012873,79.5309806 26.3012873,75.2782593 C25.9976323,56.1410137 27.2122521,41.4083723 27.2122521,41.4083723 C27.2122521,41.4083723 27.3640796,39.4338946 29.1860094,39.5857775 C31.0079391,39.7376604 30.8561116,41.7121381 30.8561116,41.7121381 C30.2488017,49.9138148 29.9451467,64.7983391 29.9451467,64.7983391 C29.9451467,64.7983391 29.9451467,67.6841143 32.6780413,67.6841143 C35.4109359,67.6841143 35.4109359,64.7983391 35.4109359,64.7983391 C35.2591085,53.1033557 36.3219008,41.4083723 36.3219008,41.4083723 C36.3219008,41.4083723 36.3219008,39.4338946 38.295658,39.4338946 C39.3584504,39.4338946 39.6621053,40.1933091 39.8139328,40.8008407 C39.9657603,41.1046065 39.9657603,41.4083723 39.8139328,41.7121381 C39.0547954,51.7364096 38.9029679,64.7983391 38.9029679,64.7983391 C38.9029679,64.7983391 38.9029679,67.6841143 41.6358625,67.6841143 C44.3687571,67.6841143 44.3687571,64.6464562 44.3687571,64.6464562 C44.3687571,54.9259505 45.279722,41.5602552 45.279722,41.5602552 C45.4315495,40.4970749 45.8870319,39.5857775 47.1016517,39.5857775 C48.6199265,39.5857775 48.771754,41.1046065 48.771754,41.5602552 C47.8607891,52.0401754 47.8607891,68.139763 48.0126166,74.9744935 C48.1644441,79.0753319 46.0388594,83.0242873 42.5468274,85.1506479 C42.2431724,85.3025308 42.091345,85.7581795 42.091345,86.2138283 C42.3949999,92.5929101 42.8504824,99.7314065 43.3059648,104.743542 C43.3059648,105.047308 43.6096197,105.351074 43.9132747,105.351074 C46.6461693,105.351074 51.8083035,105.351074 54.9966806,105.351074 C60.1588148,105.351074 62.2843995,105.351074 66.0800864,105.502957 C66.5355689,105.502957 66.6873964,105.199191 66.6873964,104.743542 C67.7501887,95.6305681 68.0538437,88.9477205 68.0538437,88.3401889 C68.0538437,87.7326573 67.2947063,87.5807744 67.2947063,87.5807744 C66.0800864,87.4288915 63.3471918,87.1251257 60.9179522,86.669477 C58.4887126,86.2138283 58.4887126,83.6318189 58.4887126,83.6318189 C56.5149553,55.0778334 71.5458756,37.155651 71.5458756,37.155651 C71.5458756,37.155651 73.0641504,35.1811733 75.1897351,35.9405878 C77.0116648,36.7000023 77.4671473,41.864021 77.4671473,42.1677868 C79.4409045,65.8615194 77.1634923,93.5042075 75.9488725,104.743542 C75.9488725,105.199191 76.1007,105.502957 76.5561824,105.65484 C77.0116648,105.806723 86.1213135,106.110488 87.0322784,105.958605 C88.5505531,105.806723 89.6133455,104.743542 89.9170004,103.224713 C93.1053775,81.0498096 92.649895,58.874906 92.649895,58.874906 C92.649895,58.1154915 93.4090324,57.5079599 94.1681698,57.356077 L102.822336,56.4447795 C103.885128,56.2928966 104.947921,55.8372479 105.403403,54.9259505 C105.707058,53.4071215 105.707058,52.1920583 105.099748,51.128878 M151.255301,35.9405878 L137.590828,35.9405878 C133.187832,35.9405878 133.187832,35.9405878 132.276867,41.1046065 C131.365902,46.2686251 131.365902,46.420508 135.465244,46.420508 L143.663928,46.420508 L139.109103,72.8481329 C138.046311,78.7715661 135.465244,82.8724044 127.418387,85.3025308 C125.44463,85.9100624 124.83732,86.669477 124.83732,87.5807744 C124.83732,88.6439547 125.140975,89.5552521 126.203768,91.8334956 C127.570215,95.0230365 128.177525,95.4786852 129.392145,95.4786852 C130.454937,95.4786852 132.580522,94.8711536 133.339659,94.7192707 C144.574892,91.0740811 149.281544,82.2648728 151.103474,71.9368355 L156.265608,42.1677868 C156.721091,35.9405878 156.721091,35.9405878 151.255301,35.9405878 M197.562682,35.9405878 C192.096893,35.9405878 192.096893,35.9405878 191.337756,40.4970749 L187.238414,64.4945733 C186.175621,71.4811868 184.353692,75.5820251 177.369628,75.5820251 C170.689219,75.5820251 168.259979,71.4811868 169.474599,65.2539878 L173.422113,42.3196697 C174.484906,35.7887049 174.333078,35.7887049 168.563634,35.7887049 C163.097845,35.7887049 162.79419,35.7887049 162.035052,40.1933091 L157.93571,64.1908075 C155.506471,77.8602687 164.00881,86.3657112 176.00318,86.3657112 C189.515826,86.3657112 196.348062,80.2903951 198.473647,65.8615194 L202.572989,42.0159039 C203.635781,35.9405878 203.332126,35.9405878 197.562682,35.9405878 M222.917871,75.2782593 C227.320868,75.1263764 229.750107,73.0000158 229.750107,71.0255381 C229.750107,68.4435288 226.56173,67.5322314 222.310561,66.1652852 C213.96005,63.5832759 206.368676,60.6975008 206.368676,51.7364096 C206.368676,41.2564894 215.022842,35.4849391 225.95442,35.4849391 C230.509245,35.4849391 235.823207,35.636822 239.011584,36.0924707 C241.896306,36.3962365 242.655443,37.4594168 241.744478,42.0159039 C240.833513,46.5723909 239.770721,47.0280396 237.189654,46.8761567 C234.001277,46.7242738 230.053762,46.2686251 225.195283,46.2686251 C219.729494,46.2686251 218.059392,48.2431029 218.059392,50.2175806 C218.059392,52.647707 220.336804,53.8627702 225.498938,55.3815992 C235.064069,58.1154915 241.440823,62.0644469 241.440823,70.4180065 C241.440823,80.2903951 234.304932,85.9100624 222.614216,86.3657112 C216.389289,86.5175941 210.771673,86.2138283 206.065021,85.4544137 C202.421161,84.8468821 202.117506,84.8468821 203.180299,79.5309806 C204.091264,74.6707277 204.091264,74.3669619 207.583296,74.6707277 C214.263705,75.2782593 218.514874,75.4301422 222.917871,75.2782593 M283.345207,35.9405878 L252.068747,35.9405878 C247.66575,35.9405878 247.66575,35.9405878 246.754785,41.2564894 C245.84382,46.5723909 245.995648,46.5723909 249.943162,46.5723909 L260.115603,46.5723909 L254.346159,79.6828635 C253.283366,86.2138283 253.435194,86.2138283 259.204638,86.2138283 C264.5186,86.2138283 264.670427,86.2138283 265.429565,81.6573412 L271.350836,46.7242738 L281.219622,46.7242738 C285.622619,46.7242738 285.622619,46.7242738 286.533584,41.4083723 C287.292721,35.9405878 287.292721,35.9405878 283.345207,35.9405878 M338.306754,46.420508 C342.709751,46.420508 342.709751,46.420508 343.620716,41.1046065 C344.531681,35.7887049 344.531681,35.7887049 340.432339,35.7887049 L318.113699,35.7887049 C310.218671,35.7887049 310.370498,35.7887049 309.004051,43.6866158 L303.234607,77.1008542 C301.716332,85.7581795 301.868159,85.7581795 309.915016,85.7581795 L331.778172,85.7581795 C336.332997,85.7581795 336.181169,85.7581795 337.092134,80.5941609 C338.003099,75.2782593 338.003099,75.2782593 333.903757,75.2782593 L315.07715,75.2782593 L316.595425,65.7096365 L332.233655,65.7096365 C336.484824,65.7096365 336.484824,65.7096365 337.243962,60.6975008 C338.003099,55.5334821 338.003099,55.5334821 332.233655,55.5334821 L318.417354,55.5334821 L319.935629,46.420508 L338.306754,46.420508 L338.306754,46.420508 Z M361.991841,64.1908075 L369.127732,48.2431029 C369.735042,46.8761567 369.735042,46.8761567 370.646007,46.8761567 C371.556972,46.8761567 371.556972,46.8761567 371.708799,48.3949858 L373.986211,64.0389246 L361.991841,64.1908075 L361.991841,64.1908075 Z M381.577585,42.0159039 C380.514793,35.7887049 380.514793,35.7887049 371.556972,35.7887049 C363.20646,35.7887049 363.358288,35.7887049 360.777221,40.9527236 L342.254268,79.9866293 C339.521374,85.4544137 339.976856,86.0619454 346.809093,86.0619454 C352.123054,86.0619454 352.123054,86.0619454 354.400467,81.0498096 L357.285189,74.3669619 L375.352659,74.3669619 L376.263623,81.0498096 C377.022761,86.0619454 377.174588,86.0619454 382.48855,86.0619454 C388.561649,86.0619454 389.168959,85.7581795 387.954339,79.5309806 L381.577585,42.0159039 Z M425.759381,35.9405878 L394.331093,35.9405878 C389.928096,35.9405878 389.928096,35.9405878 389.017132,41.2564894 C388.106167,46.5723909 388.257994,46.5723909 392.205509,46.5723909 L402.37795,46.5723909 L396.608505,79.6828635 C395.545713,86.2138283 395.697541,86.2138283 401.466985,86.2138283 C406.780946,86.2138283 406.932774,86.2138283 407.691911,81.6573412 L413.613183,46.7242738 L423.481969,46.7242738 C427.884966,46.7242738 427.884966,46.7242738 428.795931,41.4083723 C429.858723,35.9405878 429.858723,35.9405878 425.759381,35.9405878 M465.234525,46.420508 L453.391982,46.420508 C452.481017,46.420508 451.873707,45.8129764 451.873707,44.901679 L451.873707,37.7631826 C451.873707,37.0037681 452.481017,36.2443536 453.391982,36.2443536 L490.589714,36.2443536 C491.348852,36.2443536 492.107989,36.8518852 492.107989,37.7631826 L492.107989,44.901679 C492.107989,45.6610935 491.500679,46.420508 490.589714,46.420508 L478.747171,46.420508 C478.291688,46.420508 477.988034,46.7242738 477.988034,47.1799225 L477.988034,83.9355847 C477.988034,84.6949992 477.380724,85.4544137 476.469759,85.4544137 L467.511938,85.4544137 C466.600973,85.4544137 465.993663,84.8468821 465.993663,83.9355847 L465.993663,47.1799225 C465.993663,46.7242738 465.690008,46.420508 465.234525,46.420508 C465.234525,46.420508 465.234525,46.420508 465.234525,46.420508 L465.234525,46.420508 Z M484.364788,74.9744935 C484.364788,68.139763 489.375094,64.3426904 500.003018,63.7351588 L509.264494,63.2795101 L509.264494,63.1276272 C509.264494,58.7230231 506.076117,57.0523111 501.824948,57.0523111 C498.788398,57.0523111 495.903676,57.9636086 494.233574,59.3305547 C493.778091,59.6343205 493.322609,59.6343205 492.867126,59.3305547 C491.652507,58.1154915 489.223267,55.8372479 487.85682,54.4703018 C487.24951,53.8627702 487.24951,52.9514728 487.85682,52.3439412 C487.85682,52.3439412 487.85682,52.3439412 487.85682,52.3439412 C490.893369,49.4581661 496.207331,47.3318054 503.039567,47.3318054 C514.122973,47.3318054 520.651555,53.4071215 520.651555,62.6719785 L520.651555,84.0874676 C520.651555,84.8468821 520.044245,85.6062966 519.13328,85.6062966 L511.693734,85.6062966 C510.782769,85.6062966 510.175459,84.998765 510.175459,84.0874676 L510.175459,81.961107 L510.023631,81.961107 C507.746219,84.8468821 503.798705,86.5175941 498.788398,86.5175941 C490.589714,86.3657112 484.364788,82.1129899 484.364788,74.9744935 Z M509.264494,71.7849526 L509.264494,71.4811868 C509.264494,71.0255381 508.960839,70.7217723 508.505357,70.7217723 L501.369465,71.177421 C497.573778,71.4811868 495.600021,72.5443671 495.600021,74.8226106 C495.600021,77.40462 498.029261,78.4678003 501.06581,78.4678003 C505.772462,78.4678003 509.264494,75.8857909 509.264494,71.7849526 L509.264494,71.7849526 Z M534.316028,85.4544137 L526.117344,85.4544137 C525.206379,85.4544137 524.599069,84.8468821 524.599069,83.9355847 L524.599069,33.6623443 C524.599069,32.9029298 525.206379,32.1435153 526.117344,32.1435153 L534.316028,32.1435153 C535.075165,32.1435153 535.834303,32.7510469 535.834303,33.6623443 L535.834303,60.393735 C535.834303,61.1531495 536.59344,61.4569153 537.20075,60.8493837 L548.891466,48.5468687 C549.195121,48.2431029 549.650603,48.09122 549.954258,48.09122 L559.519389,48.09122 C560.885836,48.09122 561.493146,49.610049 560.582181,50.6732293 L548.435983,63.8870417 C548.132328,64.1908075 548.132328,64.4945733 548.435983,64.7983391 L561.948629,83.0242873 C562.707766,84.0874676 561.948629,85.4544137 560.734009,85.4544137 L551.168878,85.4544137 C550.713395,85.4544137 550.257913,85.3025308 549.954258,84.8468821 L541.300092,73.6075474 C540.844609,73.0000158 539.781817,72.8481329 539.174507,73.3037816 C539.174507,73.3037816 539.02268,73.4556645 539.02268,73.4556645 L536.59344,75.8857909 C536.289785,76.1895567 536.137957,76.4933226 536.137957,76.9489713 L536.137957,83.9355847 C535.834303,84.6949992 535.075165,85.4544137 534.316028,85.4544137 L534.316028,85.4544137 Z M559.671217,66.7728169 C559.671217,57.6598428 565.288833,47.1799225 578.801479,47.1799225 C592.465952,47.1799225 597.628086,57.6598428 597.628086,66.7728169 C597.628086,67.5322314 597.476258,68.4435288 597.476258,69.3548262 C597.324431,70.1142407 596.717121,70.7217723 595.957984,70.7217723 L571.969242,70.7217723 C571.361932,70.7217723 571.058277,71.3293039 571.210105,71.7849526 C572.72838,75.1263764 576.220412,76.6452055 579.560616,76.6452055 C582.293511,76.6452055 585.026405,75.8857909 586.848335,74.5188448 C587.455645,74.0631961 588.214782,74.215079 588.822092,74.6707277 L593.528744,79.2272148 C594.136054,79.8347464 594.136054,80.7460438 593.528744,81.3535754 C590.492195,84.2393505 585.33006,86.3657112 579.256961,86.3657112 C565.896143,86.3657112 559.671217,75.8857909 559.671217,66.7728169 Z M571.817415,62.8238614 L585.633715,62.8238614 C586.089198,62.8238614 586.54468,62.3682127 586.392853,61.7606811 C585.178233,57.9636086 582.293511,56.4447795 578.801479,56.4447795 C575.309447,56.4447795 572.272897,57.9636086 571.058277,61.7606811 C570.90645,62.3682127 571.210105,62.8238614 571.817415,62.8238614 Z M636.49592,48.09122 L645.605569,48.09122 C646.212879,48.09122 646.820189,48.5468687 647.123844,49.1544003 L653.95608,71.3293039 L654.107908,71.3293039 L661.091972,49.0025174 C661.243799,48.3949858 661.851109,47.9393371 662.610246,47.9393371 L672.02355,47.9393371 C672.63086,47.9393371 673.23817,48.3949858 673.389997,49.0025174 L680.525889,71.3293039 L680.677716,71.3293039 L687.509953,49.1544003 C687.66178,48.5468687 688.26909,48.09122 689.028228,48.09122 L698.137876,48.09122 C699.200669,48.09122 699.959806,49.1544003 699.504324,50.0656977 L687.05447,84.3912334 C686.902643,84.998765 686.295333,85.4544137 685.688023,85.4544137 L675.971064,85.4544137 C675.363755,85.4544137 674.756445,84.998765 674.604617,84.3912334 L667.924208,65.2539878 C667.620553,64.4945733 666.709588,64.6464562 666.557761,65.2539878 L660.181007,84.3912334 C660.029179,84.998765 659.421869,85.4544137 658.814559,85.4544137 L649.097601,85.4544137 C648.490291,85.4544137 647.882981,84.998765 647.731154,84.3912334 L635.2813,50.0656977 C634.673991,49.1544003 635.433128,48.09122 636.49592,48.09122 Z M738.068503,98.3644604 L738.068503,91.5297298 C738.068503,90.6184324 738.82764,90.0109008 739.738605,90.0109008 C740.345915,90.0109008 740.953225,90.1627837 741.560535,90.1627837 C745.356222,90.1627837 746.874497,88.9477205 748.089116,86.0619454 C748.240944,85.7581795 748.240944,85.3025308 748.089116,84.8468821 L734.424643,50.0656977 C734.120988,49.3062832 734.576471,48.3949858 735.335608,48.09122 C735.487436,48.09122 735.639263,47.9393371 735.942918,47.9393371 L744.900739,47.9393371 C745.508049,47.9393371 746.115359,48.3949858 746.267187,49.0025174 L754.314043,71.7849526 L754.46587,71.7849526 L762.512727,49.0025174 C762.664554,48.3949858 763.271864,47.9393371 763.879174,47.9393371 L772.53334,47.9393371 C773.596133,47.9393371 774.35527,49.0025174 773.899788,50.0656977 L759.93166,85.3025308 C756.135973,94.7192707 752.492113,100.035172 742.319672,100.035172 C741.25688,100.035172 740.04226,100.035172 739.131295,99.8832894 C738.675813,99.7314065 738.068503,99.1238749 738.068503,98.3644604 L738.068503,98.3644604 Z M776.632682,66.7728169 C776.632682,57.5079599 782.553954,47.1799225 795.762944,47.1799225 C801.076906,47.1799225 805.479903,49.0025174 808.516453,51.8882925 C809.123762,52.4958241 809.123762,53.4071215 808.516453,54.0146531 L806.23904,56.2928966 C805.63173,56.9004282 804.720766,56.9004282 804.265283,56.2928966 C801.987871,54.166536 798.951321,53.2552386 795.914772,53.2552386 C788.930708,53.2552386 783.616746,58.874906 783.616746,66.6209339 C783.616746,74.3669619 788.77888,79.9866293 795.914772,79.9866293 C799.103149,79.9866293 801.836044,79.0753319 804.417111,77.1008542 C805.024421,76.6452055 805.935385,76.6452055 806.390868,77.2527371 L808.66828,79.5309806 C809.27559,80.1385122 809.27559,81.2016925 808.66828,81.8092241 C805.63173,84.6949992 801.380561,86.3657112 795.914772,86.3657112 C782.553954,86.3657112 776.632682,76.0376738 776.632682,66.7728169 L776.632682,66.7728169 Z M810.186555,66.7728169 C810.186555,57.6598428 816.411481,47.1799225 829.620472,47.1799225 C842.829463,47.1799225 849.054389,57.6598428 849.054389,66.7728169 C849.054389,75.8857909 842.829463,86.3657112 829.620472,86.3657112 C816.411481,86.3657112 810.186555,75.8857909 810.186555,66.7728169 Z M829.468644,80.2903951 C836.756363,80.2903951 842.070325,74.5188448 842.070325,66.7728169 C842.070325,59.0267889 836.756363,53.2552386 829.468644,53.2552386 C822.180926,53.2552386 816.866964,59.0267889 816.866964,66.7728169 C816.866964,74.5188448 822.332753,80.2903951 829.468644,80.2903951 Z M853.305558,48.09122 L856.645763,48.09122 C857.4049,48.09122 858.164038,48.6987516 858.164038,49.610049 L858.164038,51.8882925 L858.315865,51.8882925 C860.289622,49.1544003 864.237137,47.1799225 869.399271,47.1799225 C874.713233,47.1799225 878.964402,49.0025174 881.545469,52.4958241 C881.849124,52.9514728 882.456434,52.9514728 882.760089,52.4958241 C885.492984,49.0025174 890.047808,47.1799225 895.665425,47.1799225 C905.078728,47.1799225 911,52.9514728 911,62.9757443 L911,83.9355847 C911,84.6949992 910.39269,85.4544137 909.481725,85.4544137 L905.837866,85.4544137 C904.926901,85.4544137 904.319591,84.8468821 904.319591,83.9355847 L904.319591,64.1908075 C904.319591,57.0523111 900.979386,53.1033557 894.602632,53.1033557 C888.529533,53.1033557 884.733846,57.0523111 884.733846,64.1908075 L884.733846,83.9355847 C884.733846,84.6949992 884.126536,85.4544137 883.215572,85.4544137 L879.571712,85.4544137 C878.660747,85.4544137 878.053437,84.8468821 878.053437,83.9355847 L878.053437,64.1908075 C878.053437,57.0523111 874.713233,53.1033557 868.336479,53.1033557 C862.26338,53.1033557 858.467693,57.0523111 858.467693,64.1908075 L858.467693,83.9355847 C858.467693,84.6949992 857.860383,85.4544137 856.949418,85.4544137 L853.305558,85.4544137 C852.394594,85.4544137 851.787284,84.8468821 851.787284,83.9355847 L851.787284,49.610049 C851.787284,48.6987516 852.394594,48.09122 853.305558,48.09122 L853.305558,48.09122 Z M598.690878,74.9744935 C598.690878,68.139763 603.701185,64.3426904 614.329109,63.7351588 L623.590585,63.2795101 L623.590585,63.1276272 C623.590585,58.7230231 620.402208,57.0523111 616.151038,57.0523111 C613.114489,57.0523111 610.229767,57.9636086 608.559664,59.3305547 C608.104182,59.6343205 607.648699,59.6343205 607.193217,59.3305547 C605.978597,58.1154915 603.549358,55.8372479 602.18291,54.4703018 C601.5756,53.8627702 601.5756,52.9514728 602.18291,52.3439412 C602.18291,52.3439412 602.18291,52.3439412 602.18291,52.3439412 C605.21946,49.4581661 610.533422,47.3318054 617.365658,47.3318054 C628.449064,47.3318054 634.977645,53.4071215 634.977645,62.6719785 L634.977645,84.0874676 C634.977645,84.8468821 634.370336,85.6062966 633.459371,85.6062966 L626.019824,85.6062966 C625.108859,85.6062966 624.50155,84.998765 624.50155,84.0874676 L624.50155,81.961107 L624.349722,81.961107 C622.07231,84.8468821 618.124795,86.5175941 613.114489,86.5175941 C604.763977,86.3657112 598.690878,82.1129899 598.690878,74.9744935 L598.690878,74.9744935 Z M623.438757,71.7849526 L623.438757,71.4811868 C623.438757,71.0255381 623.135102,70.7217723 622.67962,70.7217723 L615.543728,71.177421 C611.748041,71.4811868 609.774284,72.5443671 609.774284,74.8226106 C609.774284,77.40462 612.203524,78.4678003 615.240073,78.4678003 C619.946725,78.4678003 623.438757,75.8857909 623.438757,71.7849526 L623.438757,71.7849526 Z M698.289704,74.9744935 C698.289704,68.139763 703.30001,64.3426904 713.927934,63.7351588 L723.18941,63.2795101 L723.18941,63.1276272 C723.18941,58.7230231 720.001033,57.0523111 715.749864,57.0523111 C712.713314,57.0523111 709.828592,57.9636086 708.15849,59.3305547 C707.703007,59.6343205 707.247525,59.6343205 706.792042,59.3305547 C705.577423,58.1154915 703.148183,55.8372479 701.781736,54.4703018 C701.174426,53.8627702 701.174426,52.9514728 701.781736,52.3439412 C701.781736,52.3439412 701.781736,52.3439412 701.781736,52.3439412 C704.818285,49.4581661 710.132247,47.3318054 716.964483,47.3318054 C728.047889,47.3318054 734.576471,53.4071215 734.576471,62.6719785 L734.576471,84.0874676 C734.576471,84.8468821 733.969161,85.6062966 733.058196,85.6062966 L725.314995,85.6062966 C724.40403,85.6062966 723.79672,84.998765 723.79672,84.0874676 L723.79672,81.961107 L723.644892,81.961107 C721.36748,84.8468821 717.419966,86.5175941 712.409659,86.5175941 C704.51463,86.3657112 698.289704,82.1129899 698.289704,74.9744935 L698.289704,74.9744935 Z M723.18941,71.7849526 L723.18941,71.4811868 C723.18941,71.0255381 722.885755,70.7217723 722.430273,70.7217723 L715.294381,71.177421 C711.498694,71.4811868 709.524937,72.5443671 709.524937,74.8226106 C709.524937,77.40462 711.954177,78.4678003 714.990726,78.4678003 C719.697378,78.4678003 723.18941,75.8857909 723.18941,71.7849526 L723.18941,71.7849526 Z M771.31872,77.1008542 C773.74796,77.1008542 775.873545,79.0753319 775.873545,81.6573412 C775.873545,84.2393505 773.899788,86.2138283 771.31872,86.2138283 C768.889481,86.2138283 766.763896,84.2393505 766.763896,81.6573412 C766.763896,79.0753319 768.889481,77.1008542 771.31872,77.1008542 Z" id="Shape"></path>
        </g>
    </g>
</svg>